<svg width="21" height="21" viewBox="0 0 21 21" fill="none" xmlns="http://www.w3.org/2000/svg">
<path d="M4.875 21C4.35937 21 3.91812 20.8137 3.55125 20.441C3.18437 20.0683 3.00062 19.6197 3 19.0952V9.57143C3 9.04762 3.18375 8.59937 3.55125 8.22667C3.91875 7.85397 4.36 7.6673 4.875 7.66667H5.8125V5.7619C5.8125 4.44444 6.26969 3.32159 7.18406 2.39333C8.09844 1.46508 9.20375 1.00064 10.5 1C11.7962 0.999366 12.9019 1.46381 13.8169 2.39333C14.7319 3.32286 15.1887 4.44571 15.1875 5.7619V7.66667H16.125C16.6406 7.66667 17.0822 7.85333 17.4497 8.22667C17.8172 8.6 18.0006 9.04825 18 9.57143V19.0952C18 19.619 17.8166 20.0676 17.4497 20.441C17.0828 20.8143 16.6412 21.0006 16.125 21H4.875ZM10.5 16.2381C11.0156 16.2381 11.4572 16.0517 11.8247 15.679C12.1922 15.3063 12.3756 14.8578 12.375 14.3333C12.3744 13.8089 12.1909 13.3606 11.8247 12.9886C11.4584 12.6165 11.0169 12.4298 10.5 12.4286C9.98312 12.4273 9.54187 12.614 9.17625 12.9886C8.81062 13.3632 8.62687 13.8114 8.625 14.3333C8.62312 14.8552 8.80687 15.3038 9.17625 15.679C9.54562 16.0543 9.98687 16.2406 10.5 16.2381ZM7.6875 7.66667H13.3125V5.7619C13.3125 4.96825 13.0391 4.29365 12.4922 3.7381C11.9453 3.18254 11.2812 2.90476 10.5 2.90476C9.71875 2.90476 9.05469 3.18254 8.50781 3.7381C7.96094 4.29365 7.6875 4.96825 7.6875 5.7619V7.66667Z" fill="white"/>
</svg>
