<svg width="24" height="23" viewBox="0 0 24 23" fill="none" xmlns="http://www.w3.org/2000/svg">
<path d="M21.5425 4.32182V1.66225C21.5425 0.1955 20.4689 -0.997314 19.1489 -0.997314H3.59041C1.6109 -0.997314 0 0.792573 0 2.99203V18.9494C0 21.8763 2.14707 22.9388 3.59041 22.9388H21.5425C22.8626 22.9388 23.9361 21.746 23.9361 20.2792V6.98138C23.9361 5.51463 22.8626 4.32182 21.5425 4.32182ZM19.1489 16.2899H16.7553V10.9707H19.1489V16.2899ZM3.59041 4.32182C3.28226 4.3065 2.9913 4.15971 2.77811 3.912C2.56493 3.66429 2.44595 3.33477 2.44595 2.99203C2.44595 2.6493 2.56493 2.31977 2.77811 2.07207C2.9913 1.82436 3.28226 1.67757 3.59041 1.66225H19.1489V4.32182H3.59041Z" fill="#0F61AB"/>
</svg>
