<svg width="31" height="31" viewBox="0 0 31 31" fill="none" xmlns="http://www.w3.org/2000/svg">
<g clip-path="url(#clip0_33_21)">
<path d="M10.7991 1.01958C7.70177 2.09409 5.03059 4.13355 3.17797 6.83838C1.32535 9.54322 0.388942 12.7709 0.506284 16.0472C0.623626 19.3236 1.78854 22.476 3.82991 25.0414C5.87128 27.6067 8.68151 29.4499 11.8478 30.3001C14.4148 30.9624 17.1043 30.9915 19.685 30.3848C22.0229 29.8597 24.1843 28.7364 25.9577 27.125C27.8033 25.3966 29.143 23.1979 29.8327 20.7651C30.5823 18.1196 30.7157 15.3375 30.2226 12.6325H15.8076V18.6121H24.1558C23.9889 19.5658 23.6314 20.476 23.1046 21.2883C22.5777 22.1006 21.8924 22.7983 21.0897 23.3396C20.0703 24.0139 18.9211 24.4676 17.716 24.6716C16.5074 24.8964 15.2676 24.8964 14.059 24.6716C12.834 24.4183 11.6751 23.9127 10.6563 23.187C9.01943 22.0283 7.7904 20.3823 7.14454 18.4837C6.48776 16.5496 6.48776 14.4528 7.14454 12.5186C7.60428 11.1629 8.36428 9.92853 9.36782 8.90763C10.5163 7.71788 11.9702 6.86743 13.5702 6.44961C15.1701 6.03179 16.8542 6.06273 18.4377 6.53903C19.6748 6.91876 20.806 7.58223 21.7412 8.47653C22.6825 7.54008 23.6222 6.6012 24.5602 5.65989C25.0446 5.15372 25.5726 4.67177 26.0497 4.15349C24.6222 2.82503 22.9465 1.79133 21.1188 1.11161C17.7904 -0.0969271 14.1485 -0.129405 10.7991 1.01958Z" fill="white"/>
<path d="M10.7992 1.0196C14.1483 -0.130169 17.7901 -0.0985456 21.1188 1.10921C22.9468 1.79354 24.6217 2.83222 26.0473 4.16561C25.5629 4.6839 25.0519 5.16827 24.5578 5.67202C23.6181 6.61009 22.6793 7.54494 21.7412 8.47655C20.806 7.58224 19.6748 6.91878 18.4378 6.53905C16.8548 6.06107 15.1707 6.02835 13.5703 6.44446C11.9699 6.86057 10.5151 7.70945 9.36541 8.89796C8.36187 9.91887 7.60186 11.1532 7.14213 12.509L2.12158 8.62186C3.91863 5.05822 7.03011 2.33231 10.7992 1.0196Z" fill="#E33629"/>
<path d="M0.789502 12.4727C1.05935 11.1353 1.50736 9.84015 2.12153 8.62189L7.14208 12.5187C6.4853 14.4528 6.4853 16.5496 7.14208 18.4838C5.46937 19.7754 3.79586 21.0736 2.12153 22.3781C0.584008 19.3177 0.115089 15.8306 0.789502 12.4727Z" fill="#F8BD00"/>
<path d="M15.8076 12.6301H30.2226C30.7157 15.3351 30.5823 18.1172 29.8327 20.7627C29.143 23.1954 27.8033 25.3942 25.9577 27.1226C24.3374 25.8583 22.7099 24.6038 21.0897 23.3396C21.893 22.7978 22.5786 22.0993 23.1055 21.2862C23.6323 20.473 23.9896 19.5618 24.1558 18.6073H15.8076C15.8052 16.6165 15.8076 14.6233 15.8076 12.6301Z" fill="#587DBD"/>
<path d="M2.11914 22.3781C3.79346 21.0865 5.46698 19.7883 7.13969 18.4838C7.78683 20.383 9.01762 22.0291 10.6562 23.187C11.6783 23.9094 12.8396 24.4109 14.0663 24.6595C15.2749 24.8843 16.5146 24.8843 17.7233 24.6595C18.9284 24.4556 20.0775 24.0018 21.097 23.3275C22.7172 24.5917 24.3447 25.8463 25.9649 27.1105C24.1918 28.7228 22.0304 29.8469 19.6923 30.3727C17.1115 30.9794 14.4221 30.9504 11.8551 30.288C9.82482 29.7459 7.92843 28.7903 6.28477 27.481C4.54504 26.0998 3.12411 24.3592 2.11914 22.3781Z" fill="#319F43"/>
</g>
<defs>
<clipPath id="clip0_33_21">
<rect width="31" height="31" fill="white"/>
</clipPath>
</defs>
</svg>
