<svg width="24" height="17" viewBox="0 0 24 17" fill="none" xmlns="http://www.w3.org/2000/svg">
<path d="M13.9627 10.472V12.7992H17.4534V16.2898H19.7805V12.7992H23.2712V10.472H19.7805V6.98136H17.4534V10.472M13.9278 6.52757C13.7882 4.98004 12.3221 3.45577 10.472 3.49068C8.49399 3.52559 6.98136 5.00331 6.98136 6.98136C6.98136 8.95941 8.49399 10.4022 10.472 10.472C10.9142 10.472 11.368 10.379 11.7985 10.2044C12.1127 8.9245 12.6363 7.7144 13.9278 6.52757ZM11.6356 11.6356H4.65424C4.65424 11.0184 4.40906 10.4265 3.97264 9.99008C3.53622 9.55366 2.94431 9.30848 2.32712 9.30848V4.65424C3.61867 4.65424 4.65424 3.61867 4.65424 2.32712H16.2898C16.2898 2.94431 16.535 3.53622 16.9714 3.97264C17.4079 4.40906 17.9998 4.65424 18.617 4.65424V4.72405C19.3965 4.72405 20.1761 4.86368 20.9441 5.11966V0H0V13.9627H12.0079C11.7611 13.2117 11.6354 12.4262 11.6356 11.6356Z" fill="#0F61AB"/>
</svg>
