<svg id="Layer_1" data-name="Layer 1" xmlns="http://www.w3.org/2000/svg" viewBox="0 0 372.37 506.25"><defs><style>.cls-1{fill:#1062ab;}.cls-2{fill:#fff;}.cls-3{fill:none;stroke:#1062ab;stroke-linecap:round;stroke-miterlimit:10;stroke-width:5px;}</style></defs><path class="cls-1" d="M469,286.61q.69-1.38,1.35-2.76c.17-.36.34-.71.5-1.07.41-.87.81-1.75,1.2-2.63.18-.39.35-.79.52-1.18.38-.87.76-1.75,1.12-2.62.17-.4.33-.8.49-1.19.36-.89.72-1.79,1.06-2.68.15-.38.29-.77.44-1.15.35-.92.69-1.84,1-2.77.13-.36.25-.72.38-1.09.33-.94.66-1.89,1-2.85.12-.36.23-.72.35-1.08.3-1,.6-1.91.89-2.86l.09-.3h0a161.39,161.39,0,0,0,6.74-46.18c0-95.4-83.36-172.74-186.19-172.74S113.73,118.8,113.73,214.2a161,161,0,0,0,6.74,46.18h0c.07.23.15.45.21.68.16.5.32,1,.47,1.5.26.83.52,1.65.79,2.47.18.54.37,1.08.56,1.62q.39,1.17.81,2.31c.2.57.41,1.13.62,1.7.28.74.55,1.47.84,2.2.22.58.46,1.16.69,1.74s.57,1.41.86,2.11.51,1.2.77,1.79.58,1.34.88,2l.84,1.85c.29.62.59,1.24.88,1.87l1,1.95c.28.56.56,1.12.85,1.68s.72,1.41,1.09,2.11c.1.19.19.38.29.56l.08.13a170.17,170.17,0,0,0,12,19.22l0,.06L288.85,541.23c5.38,8.64,16.74,8.64,22.12,0l144-231.33a168.46,168.46,0,0,0,12-19.26l0,0,.08-.14c.54-1,1.06-2,1.58-3.06C468.72,287.15,468.85,286.88,469,286.61Z" transform="translate(-113.73 -41.46)"/><rect class="cls-2" x="69.8" y="162.45" width="109.93" height="109.93" rx="15.17"/><path class="cls-2" d="M156.79,39.43h22.94a0,0,0,0,1,0,0v94.43a15.5,15.5,0,0,1-15.5,15.5H69.8a0,0,0,0,1,0,0V126.42A87,87,0,0,1,156.79,39.43Z"/><path class="cls-2" d="M306.54,80.89h0V306a7.86,7.86,0,0,0,7.86,7.85h94.14a7.94,7.94,0,0,0,7.94-7.94V190.82A109.94,109.94,0,0,0,306.54,80.89Zm16.23,125.64a8.9,8.9,0,1,1,8.9-8.9A8.91,8.91,0,0,1,322.77,206.53Z" transform="translate(-113.73 -41.46)"/><line class="cls-3" x1="133.36" y1="191.04" x2="96.7" y2="233.8"/><line class="cls-3" x1="152.27" y1="191.23" x2="97.99" y2="253.54"/><line class="cls-3" x1="134.36" y1="69.04" x2="97.7" y2="111.8"/><line class="cls-3" x1="153.27" y1="69.23" x2="98.99" y2="131.54"/></svg>